<?xml version="1.0" encoding="utf-8"?>
<!-- Generator: Adobe Illustrator 28.0.0, SVG Export Plug-In . SVG Version: 6.00 Build 0)  -->
<svg version="1.0" id="katman_1" xmlns="http://www.w3.org/2000/svg" xmlns:xlink="http://www.w3.org/1999/xlink" x="0px" y="0px"
	 viewBox="0 0 841.89 595.28" style="enable-background:new 0 0 841.89 595.28;" xml:space="preserve">
<style type="text/css">
	.st0{fill:#C02827;}
</style>
<polygon class="st0" points="134.37,305.76 158.01,361.96 158.01,279.16 134.37,222.97 "/>
<polygon class="st0" points="86.99,282.17 69.31,282.17 69.31,370.82 149.15,370.82 86.99,347.14 "/>
<polygon class="st0" points="119.59,267.3 101.81,249.56 101.81,332.36 152.1,364.91 119.59,319.08 "/>
<polygon class="st0" points="240.85,347.14 178.7,370.82 258.54,370.82 258.54,282.17 240.85,282.17 "/>
<polygon class="st0" points="193.48,222.97 169.83,279.16 169.83,361.96 193.48,305.76 "/>
<polygon class="st0" points="226.03,249.56 208.3,267.3 208.3,319.08 175.74,364.91 226.03,332.36 "/>
<path class="st0" d="M376.89,274.61L376.89,274.61c4.27,0,7.88-0.8,10.93-2.44c3.05-1.64,5.35-3.89,6.94-6.75
	c1.59-2.86,2.39-6.15,2.39-9.9s-0.8-7.27-2.44-10.18c-1.64-2.91-4.03-5.11-7.18-6.66s-6.94-2.35-11.35-2.35H346.4v62.53h12.57v-24.3
	h10.41l13.84,24.3h14.07l-13.28-22.28l-7.13-2.02L376.89,274.61z M358.97,265.14V246h14.35c2.2,0,4.13,0.33,5.82,0.99
	c1.69,0.66,3,1.69,3.99,3.14c0.99,1.41,1.45,3.28,1.45,5.58c0,3.28-1.03,5.68-3.14,7.22c-2.11,1.5-4.93,2.25-8.54,2.25h-13.93
	L358.97,265.14z"/>
<path class="st0" d="M572.5,346.53L572.5,346.53c4.27,0,7.88-0.8,10.93-2.44c3.05-1.64,5.35-3.89,6.94-6.75
	c1.59-2.86,2.39-6.15,2.39-9.9c0-3.75-0.8-7.27-2.44-10.18s-4.03-5.11-7.18-6.66c-3.14-1.55-6.94-2.35-11.35-2.35h-29.79v62.53
	h12.57v-24.3H565l13.84,24.3h14.12l-13.28-22.28l-7.13-2.02L572.5,346.53z M554.58,337.05v-19.14h14.35c2.2,0,4.13,0.33,5.82,0.99
	s3,1.69,3.99,3.14c0.99,1.41,1.45,3.28,1.45,5.58c0,3.28-1.03,5.68-3.14,7.18c-2.11,1.5-4.93,2.25-8.54,2.25H554.58L554.58,337.05z"
	/>
<rect x="405.32" y="236.38" class="st0" width="12.57" height="62.53"/>
<polygon class="st0" points="438.91,272.31 464.42,272.31 464.42,262.65 438.91,262.65 438.91,246.75 466.58,246.75 466.58,236.38 
	426.62,236.38 426.62,298.91 438.91,298.91 "/>
<polygon class="st0" points="512.23,262.65 486.66,262.65 486.66,246.75 514.38,246.75 514.38,236.38 474.42,236.38 474.42,298.91 
	486.66,298.91 486.66,272.31 512.23,272.31 "/>
<rect x="522.22" y="236.38" class="st0" width="12.57" height="62.53"/>
<polygon class="st0" points="561.2,298.91 573.4,298.91 573.4,246.89 591.97,246.89 591.97,236.38 542.58,236.38 542.58,246.89 
	561.2,246.89 "/>
<polygon class="st0" points="639.54,261.95 612.05,261.95 612.05,236.38 599.81,236.38 599.81,298.91 612.05,298.91 612.05,272.64 
	639.54,272.64 639.54,298.91 651.78,298.91 651.78,236.38 639.54,236.38 "/>
<path class="st0" d="M325.38,346.81c0,4.69-1.13,8.3-3.42,10.7c-2.25,2.44-5.77,3.66-10.51,3.66c-4.74,0-8.21-1.22-10.51-3.66
	c-2.3-2.44-3.42-6-3.42-10.7v-38.56H285v39.31c0,4.97,0.99,9.29,3,12.9c1.97,3.66,4.97,6.47,8.91,8.4
	c3.94,1.97,8.82,2.96,14.59,2.96c5.77,0,10.65-0.99,14.59-2.96c3.94-1.97,6.9-4.78,8.91-8.4c2.02-3.61,3-7.93,3-12.95V308.2h-12.57
	v38.56l0,0L325.38,346.81z"/>
<path class="st0" d="M385.15,351.03h-0.19c-1.03-1.97-2.11-3.85-3.19-5.54l-22.99-37.2H346.4v62.53h12.01v-42.59h0.19
	c1.03,1.88,2.06,3.71,3.19,5.49l22.99,37.11h12.34v-62.53h-11.96v42.78l0,0L385.15,351.03z"/>
<rect x="405.32" y="308.29" class="st0" width="12.57" height="62.53"/>
<path class="st0" d="M457.81,351.12c-0.8,2.53-1.59,5.39-2.35,8.49h-0.42c-0.8-3.14-1.55-5.96-2.35-8.49l-13.56-42.83h-13.37
	l21.72,62.53h15.43l21.72-62.53h-13.42l-13.46,42.83H457.81z"/>
<polygon class="st0" points="491.63,370.82 534.04,370.82 534.04,360.46 503.88,360.46 503.88,344.23 530.29,344.23 530.29,334.52 
	503.88,334.52 503.88,318.61 534.04,318.61 534.04,308.25 491.63,308.25 "/>
<path class="st0" d="M635.83,336.91c-3.24-1.36-7.46-2.49-12.62-3.47c-2.91-0.66-5.16-1.31-6.8-1.92s-2.81-1.41-3.57-2.44
	s-1.13-2.3-1.13-3.89c0-1.59,0.42-2.91,1.22-4.08s1.97-2.06,3.57-2.67c1.59-0.61,3.38-0.94,5.49-0.94c2.11,0,4.03,0.38,5.63,1.17
	c1.59,0.8,2.91,1.92,3.85,3.42c0.99,1.5,1.55,3.28,1.78,5.35l12.24-1.45c-0.52-3.99-1.69-7.36-3.66-10.18
	c-1.97-2.81-4.6-4.93-7.93-6.38s-7.22-2.2-11.68-2.2c-4.46,0-8.82,0.8-12.29,2.35c-3.47,1.55-6.1,3.8-7.93,6.71
	s-2.77,6.38-2.77,10.46c0,4.08,0.84,6.9,2.53,9.24c1.69,2.35,4.13,4.22,7.27,5.58c3.14,1.36,7.22,2.49,12.2,3.38
	c2.86,0.52,5.16,1.13,6.85,1.83s3,1.59,3.85,2.72c0.84,1.08,1.27,2.49,1.27,4.17s-0.47,3.14-1.36,4.36s-2.16,2.11-3.8,2.67
	c-1.59,0.61-3.57,0.89-5.82,0.89c-2.25,0-4.69-0.47-6.47-1.41s-3.19-2.2-4.22-3.85c-1.03-1.64-1.69-3.52-1.97-5.68l-12.43,1.5
	c0.61,4.22,1.92,7.79,4.03,10.7c2.11,2.91,4.88,5.11,8.4,6.66c3.52,1.55,7.79,2.35,12.71,2.35c4.93,0,9.15-0.75,12.71-2.2
	c3.57-1.45,6.29-3.66,8.26-6.57c1.92-2.91,2.91-6.52,2.91-10.79s-0.89-7.22-2.67-9.71c-1.78-2.49-4.32-4.41-7.55-5.72L635.83,336.91
	z"/>
<rect x="652.67" y="308.29" class="st0" width="12.57" height="62.53"/>
<path class="st0" d="M759.39,308.25l-13.89,24.77c-0.33,0.56-0.61,1.17-0.89,1.78c-0.28,0.61-0.52,1.13-0.7,1.59h-0.19
	c-0.28-0.47-0.52-1.03-0.84-1.64c-0.28-0.61-0.61-1.22-0.94-1.78l-13.84-24.72h-55.12v10.55h18.62v52.02h12.2V318.8h17.26l16.65,28
	v23.97h12.24v-24.11l22.7-38.42H759.39L759.39,308.25z"/>
<path class="st0" d="M295.69,296.05c4.27,2.58,9.29,3.89,15.06,3.89s9.1-0.84,12.38-2.53c3.05-1.55,5.54-3.89,7.46-6.94
	c0.14-0.23-3.24,8.44-3.24,8.44h10.55v-33.77h-25.99v9.38h13.74c-0.38,5.3-1.74,8.87-4.08,11.16c-2.35,2.35-5.63,3.52-9.94,3.52
	s-6.47-0.84-8.91-2.53s-4.27-4.13-5.49-7.27c-1.22-3.19-1.83-7.08-1.83-11.63c0-4.55,0.61-8.4,1.78-11.63
	c1.17-3.24,3-5.72,5.39-7.46c2.39-1.74,5.35-2.58,8.91-2.58c3.57,0,4.83,0.47,6.71,1.36s3.38,2.2,4.55,3.94
	c1.17,1.74,2.06,3.89,2.72,6.52l11.87-2.2c-0.94-4.32-2.53-7.97-4.78-11.02s-5.11-5.35-8.58-6.94c-3.52-1.59-7.6-2.39-12.24-2.39
	s-11.31,1.36-15.71,4.03c-4.41,2.67-7.74,6.47-10.04,11.4c-2.3,4.93-3.47,10.6-3.47,17.12s1.13,12.2,3.42,16.98
	c2.25,4.83,5.54,8.54,9.8,11.12L295.69,296.05z"/>
</svg>
